<?xml version="1.0" encoding="UTF-8"?>
<!DOCTYPE svg PUBLIC "-//W3C//DTD SVG 1.1//EN" "http://www.w3.org/Graphics/SVG/1.1/DTD/svg11.dtd">
<svg xmlns="http://www.w3.org/2000/svg" version="1.1" width="400px" height="400px" style="shape-rendering:geometricPrecision; text-rendering:geometricPrecision; image-rendering:optimizeQuality; fill-rule:evenodd; clip-rule:evenodd" xmlns:xlink="http://www.w3.org/1999/xlink">
<g><path style="opacity:1" fill="#044ea2" d="M 149.5,99.5 C 150.828,104.165 153.161,108.165 156.5,111.5C 171.805,138.483 187.139,165.483 202.5,192.5C 233.828,193.667 265.161,193.833 296.5,193C 280.695,165.888 265.029,138.721 249.5,111.5C 248.025,107.217 246.025,103.217 243.5,99.5C 250.016,98.237 255.516,99.9036 260,104.5C 276.081,132.997 292.414,161.33 309,189.5C 313.667,196.167 313.667,202.833 309,209.5C 292.414,237.67 276.081,266.003 260,294.5C 255.868,299.048 250.701,300.715 244.5,299.5C 246.066,295.272 248.066,291.272 250.5,287.5C 265.177,259.983 280.51,232.816 296.5,206C 265.161,205.167 233.828,205.333 202.5,206.5C 186.902,233.365 171.568,260.365 156.5,287.5C 153.35,291.119 150.684,295.119 148.5,299.5C 143.911,299.532 140.577,297.532 138.5,293.5C 140.558,291.073 142.391,288.407 144,285.5C 145.009,283.975 145.509,282.308 145.5,280.5C 161.392,253.727 177.059,226.727 192.5,199.5C 189.554,194.605 186.887,189.605 184.5,184.5C 182.316,180.119 179.65,176.119 176.5,172.5C 166.657,154.138 156.324,136.138 145.5,118.5C 144.454,113.404 142.121,109.071 138.5,105.5C 140.881,101.254 144.547,99.2536 149.5,99.5 Z M 156.5,111.5 C 187.5,111.5 218.5,111.5 249.5,111.5C 265.029,138.721 280.695,165.888 296.5,193C 265.161,193.833 233.828,193.667 202.5,192.5C 187.139,165.483 171.805,138.483 156.5,111.5 Z M 250.5,287.5 C 219.167,287.5 187.833,287.5 156.5,287.5C 171.568,260.365 186.902,233.365 202.5,206.5C 233.828,205.333 265.161,205.167 296.5,206C 280.51,232.816 265.177,259.983 250.5,287.5 Z"/></g>
<g><path style="opacity:1" fill="#b0d235" d="M 149.5,99.5 C 180.833,99.5 212.167,99.5 243.5,99.5C 246.025,103.217 248.025,107.217 249.5,111.5C 218.5,111.5 187.5,111.5 156.5,111.5C 153.161,108.165 150.828,104.165 149.5,99.5 Z"/></g>
<g><path style="opacity:0.978" fill="#b0d235" d="M 138.5,105.5 C 142.121,109.071 144.454,113.404 145.5,118.5C 135.305,136.388 124.971,154.221 114.5,172C 135.164,172.5 155.831,172.667 176.5,172.5C 179.65,176.119 182.316,180.119 184.5,184.5C 158.831,184.333 133.165,184.5 107.5,185C 104.874,189.084 102.374,193.25 100,197.5C 99.3653,199.635 99.6986,201.635 101,203.5C 115.845,229.194 130.678,254.861 145.5,280.5C 145.509,282.308 145.009,283.975 144,285.5C 142.391,288.407 140.558,291.073 138.5,293.5C 122.598,265.364 106.431,237.364 90,209.5C 85.3333,202.833 85.3333,196.167 90,189.5C 106.431,161.636 122.598,133.636 138.5,105.5 Z"/></g>
<g><path style="opacity:1" fill="#b0d235" d="M 156.5,287.5 C 187.833,287.5 219.167,287.5 250.5,287.5C 248.066,291.272 246.066,295.272 244.5,299.5C 212.5,299.5 180.5,299.5 148.5,299.5C 150.684,295.119 153.35,291.119 156.5,287.5 Z"/></g>
</svg>
