<svg width="30" height="27" viewBox="0 0 30 27" fill="none" xmlns="http://www.w3.org/2000/svg">
<path d="M16.0528 26.2073H9.421C8.05197 26.2073 6.77598 25.4926 6.09182 24.3443L0.512162 14.968C-0.170604 13.8183 -0.170604 12.3897 0.511463 11.2399L6.09182 1.86507C6.77528 0.713992 8.05127 0 9.421 0H20.5782C21.9472 0 23.2232 0.713992 23.9074 1.86507L29.4864 11.2393C30.1712 12.389 30.1712 13.8183 29.4864 14.968L28.0439 17.2003C27.3723 18.3303 26.0956 19.0436 24.7266 19.0436H18.0857L21.7157 13.0996L18.3578 7.45891H11.64L8.28073 13.1036L16.0528 26.2073Z" fill="#FE5000"/>
</svg>
