<?xml version="1.0" encoding="UTF-8"?>
<!DOCTYPE svg PUBLIC "-//W3C//DTD SVG 1.1//EN" "http://www.w3.org/Graphics/SVG/1.1/DTD/svg11.dtd">
<svg xmlns="http://www.w3.org/2000/svg" version="1.1" width="400px" height="400px" style="shape-rendering:geometricPrecision; text-rendering:geometricPrecision; image-rendering:optimizeQuality; fill-rule:evenodd; clip-rule:evenodd" xmlns:xlink="http://www.w3.org/1999/xlink">
<g><path style="opacity:1" fill="#fefefe" d="M -0.5,-0.5 C 132.833,-0.5 266.167,-0.5 399.5,-0.5C 399.5,11.5 399.5,23.5 399.5,35.5C 325.497,35.1667 251.497,35.5 177.5,36.5C 175.144,39.1864 172.811,41.853 170.5,44.5C 166.167,48.1667 162.167,52.1667 158.5,56.5C 154.167,60.1667 150.167,64.1667 146.5,68.5C 138.833,75.8333 131.167,83.1667 123.5,90.5C 112.162,90.3335 100.828,90.5001 89.5,91C 59.632,121.035 29.632,150.868 -0.5,180.5C -0.5,120.167 -0.5,59.8333 -0.5,-0.5 Z"/></g>
<g><path style="opacity:1" fill="#1b5ea5" d="M 399.5,35.5 C 399.5,35.8333 399.5,36.1667 399.5,36.5C 361.818,35.8395 324.485,36.5062 287.5,38.5C 271.5,38.5 255.5,38.5 239.5,38.5C 228.833,38.5 218.167,38.5 207.5,38.5C 204.813,38.3359 202.146,38.5026 199.5,39C 202.293,41.1605 205.293,43.1605 208.5,45C 210.062,48.807 212.729,51.4737 216.5,53C 218.062,56.807 220.729,59.4737 224.5,61C 226.062,64.807 228.729,67.4737 232.5,69C 234.062,72.807 236.729,75.4737 240.5,77C 242.062,80.807 244.729,83.4737 248.5,85C 250.062,88.807 252.729,91.4737 256.5,93C 258.062,96.807 260.729,99.4737 264.5,101C 266.062,104.807 268.729,107.474 272.5,109C 274.062,112.807 276.729,115.474 280.5,117C 282.062,120.807 284.729,123.474 288.5,125C 290.062,128.807 292.729,131.474 296.5,133C 298.062,136.807 300.729,139.474 304.5,141C 306.062,144.807 308.729,147.474 312.5,149C 314.062,152.807 316.729,155.474 320.5,157C 322.062,160.807 324.729,163.474 328.5,165C 330.062,168.807 332.729,171.474 336.5,173C 338.062,176.807 340.729,179.474 344.5,181C 346.062,184.807 348.729,187.474 352.5,189C 354.062,192.807 356.729,195.474 360.5,197C 362.041,198.579 363.208,200.413 364,202.5C 368.167,204 371,206.833 372.5,211C 373.854,212.294 375.188,212.46 376.5,211.5C 377.298,211.957 377.631,212.624 377.5,213.5C 374.167,217.5 370.5,221.167 366.5,224.5C 366.565,224.062 366.399,223.728 366,223.5C 363.333,224.833 361.333,226.833 360,229.5C 358.118,225.973 355.285,223.973 351.5,223.5C 351.692,220.191 350.359,217.691 347.5,216C 346.207,215.51 344.873,215.343 343.5,215.5C 343.692,212.191 342.359,209.691 339.5,208C 338.207,207.51 336.873,207.343 335.5,207.5C 335.692,204.191 334.359,201.691 331.5,200C 330.207,199.51 328.873,199.343 327.5,199.5C 327.657,198.127 327.49,196.793 327,195.5C 325.179,192.851 322.679,191.184 319.5,190.5C 318.864,188.22 317.864,186.22 316.5,184.5C 314.129,178.819 310.129,177.319 304.5,180C 303.023,181.812 301.69,183.645 300.5,185.5C 298.932,183.189 298.098,180.522 298,177.5C 295.714,174.635 294.88,171.302 295.5,167.5C 292.833,167.5 290.167,167.5 287.5,167.5C 287.5,164.833 287.5,162.167 287.5,159.5C 284.833,159.5 282.167,159.5 279.5,159.5C 279.5,156.833 279.5,154.167 279.5,151.5C 276.833,151.5 274.167,151.5 271.5,151.5C 271.5,148.833 271.5,146.167 271.5,143.5C 268.833,143.5 266.167,143.5 263.5,143.5C 263.5,140.833 263.5,138.167 263.5,135.5C 260.833,135.5 258.167,135.5 255.5,135.5C 255.5,132.833 255.5,130.167 255.5,127.5C 252.833,127.5 250.167,127.5 247.5,127.5C 247.5,124.833 247.5,122.167 247.5,119.5C 244.833,119.5 242.167,119.5 239.5,119.5C 239.5,116.833 239.5,114.167 239.5,111.5C 236.833,111.5 234.167,111.5 231.5,111.5C 231.5,108.833 231.5,106.167 231.5,103.5C 228.833,103.5 226.167,103.5 223.5,103.5C 223.5,100.833 223.5,98.1667 223.5,95.5C 220.833,95.5 218.167,95.5 215.5,95.5C 215.5,92.8333 215.5,90.1667 215.5,87.5C 212.833,87.5 210.167,87.5 207.5,87.5C 207.5,84.8333 207.5,82.1667 207.5,79.5C 204.833,79.5 202.167,79.5 199.5,79.5C 199.5,76.8333 199.5,74.1667 199.5,71.5C 196.833,71.5 194.167,71.5 191.5,71.5C 191.5,68.8333 191.5,66.1667 191.5,63.5C 188.833,63.5 186.167,63.5 183.5,63.5C 183.5,60.8333 183.5,58.1667 183.5,55.5C 180.833,55.5 178.167,55.5 175.5,55.5C 175.665,52.4816 175.498,49.4816 175,46.5C 174.667,46.8333 174.333,47.1667 174,47.5C 172.961,46.2899 171.794,45.2899 170.5,44.5C 172.811,41.853 175.144,39.1864 177.5,36.5C 251.497,35.5 325.497,35.1667 399.5,35.5 Z"/></g>
<g><path style="opacity:1" fill="#16559d" d="M 207.5,38.5 C 218.167,38.5 228.833,38.5 239.5,38.5C 247.316,39.4924 255.316,39.8257 263.5,39.5C 263.308,42.8091 264.641,45.3091 267.5,47C 268.793,47.49 270.127,47.6567 271.5,47.5C 271.308,50.8091 272.641,53.3091 275.5,55C 276.793,55.49 278.127,55.6567 279.5,55.5C 279.308,58.8091 280.641,61.3091 283.5,63C 284.793,63.49 286.127,63.6567 287.5,63.5C 287.308,66.8091 288.641,69.3091 291.5,71C 292.793,71.49 294.127,71.6567 295.5,71.5C 295.308,74.8091 296.641,77.3091 299.5,79C 300.793,79.49 302.127,79.6567 303.5,79.5C 303.308,82.8091 304.641,85.3091 307.5,87C 308.793,87.49 310.127,87.6567 311.5,87.5C 311.308,90.8091 312.641,93.3091 315.5,95C 316.793,95.49 318.127,95.6567 319.5,95.5C 319.308,98.8091 320.641,101.309 323.5,103C 324.793,103.49 326.127,103.657 327.5,103.5C 327.308,106.809 328.641,109.309 331.5,111C 332.793,111.49 334.127,111.657 335.5,111.5C 335.308,114.809 336.641,117.309 339.5,119C 340.793,119.49 342.127,119.657 343.5,119.5C 343.308,122.809 344.641,125.309 347.5,127C 348.793,127.49 350.127,127.657 351.5,127.5C 351.308,130.809 352.641,133.309 355.5,135C 356.793,135.49 358.127,135.657 359.5,135.5C 359.308,138.809 360.641,141.309 363.5,143C 364.793,143.49 366.127,143.657 367.5,143.5C 367.308,146.809 368.641,149.309 371.5,151C 372.793,151.49 374.127,151.657 375.5,151.5C 375.308,154.809 376.641,157.309 379.5,159C 380.793,159.49 382.127,159.657 383.5,159.5C 383.308,162.809 384.641,165.309 387.5,167C 388.793,167.49 390.127,167.657 391.5,167.5C 391.308,170.809 392.641,173.309 395.5,175C 396.793,175.49 398.127,175.657 399.5,175.5C 399.5,181.167 399.5,186.833 399.5,192.5C 393.833,197.833 388.167,203.167 382.5,208.5C 380.134,205.041 376.968,202.374 373,200.5C 371.474,196.729 368.807,194.062 365,192.5C 363.474,188.729 360.807,186.062 357,184.5C 355.474,180.729 352.807,178.062 349,176.5C 347.474,172.729 344.807,170.062 341,168.5C 339.474,164.729 336.807,162.062 333,160.5C 331.474,156.729 328.807,154.062 325,152.5C 323.474,148.729 320.807,146.062 317,144.5C 315.474,140.729 312.807,138.062 309,136.5C 307.474,132.729 304.807,130.062 301,128.5C 299.474,124.729 296.807,122.062 293,120.5C 291.474,116.729 288.807,114.062 285,112.5C 283.474,108.729 280.807,106.062 277,104.5C 275.474,100.729 272.807,98.062 269,96.5C 267.474,92.7286 264.807,90.062 261,88.5C 259.474,84.7286 256.807,82.062 253,80.5C 251.474,76.7286 248.807,74.062 245,72.5C 243.474,68.7286 240.807,66.062 237,64.5C 235.474,60.7286 232.807,58.062 229,56.5C 227.474,52.7286 224.807,50.062 221,48.5C 220.293,46.9194 219.46,45.4194 218.5,44C 215.086,41.3607 211.42,39.5273 207.5,38.5 Z"/></g>
<g><path style="opacity:1" fill="#1a4890" d="M 399.5,36.5 C 399.5,37.1667 399.5,37.8333 399.5,38.5C 375.498,38.3334 351.498,38.5 327.5,39C 333.8,38.4654 336.466,41.2987 335.5,47.5C 341.833,46.5 344.5,49.1667 343.5,55.5C 349.833,54.5 352.5,57.1667 351.5,63.5C 357.833,62.5 360.5,65.1667 359.5,71.5C 365.833,70.5 368.5,73.1667 367.5,79.5C 373.833,78.5 376.5,81.1667 375.5,87.5C 381.833,86.5 384.5,89.1667 383.5,95.5C 389.833,94.5 392.5,97.1667 391.5,103.5C 394.513,103.107 397.18,103.774 399.5,105.5C 399.5,116.167 399.5,126.833 399.5,137.5C 397.732,135.492 396.066,133.326 394.5,131C 390.729,129.474 388.062,126.807 386.5,123C 382.729,121.474 380.062,118.807 378.5,115C 374.729,113.474 372.062,110.807 370.5,107C 366.729,105.474 364.062,102.807 362.5,99C 358.729,97.4737 356.062,94.807 354.5,91C 350.729,89.4737 348.062,86.807 346.5,83C 342.729,81.4737 340.062,78.807 338.5,75C 334.729,73.4737 332.062,70.807 330.5,67C 326.729,65.4737 324.062,62.807 322.5,59C 318.729,57.4737 316.062,54.807 314.5,51C 310.729,49.4737 308.062,46.807 306.5,43C 300.692,39.583 294.359,38.083 287.5,38.5C 324.485,36.5062 361.818,35.8395 399.5,36.5 Z"/></g>
<g><path style="opacity:1" fill="#1459a1" d="M 207.5,38.5 C 211.42,39.5273 215.086,41.3607 218.5,44C 219.46,45.4194 220.293,46.9194 221,48.5C 224.807,50.062 227.474,52.7286 229,56.5C 232.807,58.062 235.474,60.7286 237,64.5C 240.807,66.062 243.474,68.7286 245,72.5C 248.807,74.062 251.474,76.7286 253,80.5C 256.807,82.062 259.474,84.7286 261,88.5C 264.807,90.062 267.474,92.7286 269,96.5C 272.807,98.062 275.474,100.729 277,104.5C 280.807,106.062 283.474,108.729 285,112.5C 288.807,114.062 291.474,116.729 293,120.5C 296.807,122.062 299.474,124.729 301,128.5C 304.807,130.062 307.474,132.729 309,136.5C 312.807,138.062 315.474,140.729 317,144.5C 320.807,146.062 323.474,148.729 325,152.5C 328.807,154.062 331.474,156.729 333,160.5C 336.807,162.062 339.474,164.729 341,168.5C 344.807,170.062 347.474,172.729 349,176.5C 352.807,178.062 355.474,180.729 357,184.5C 360.807,186.062 363.474,188.729 365,192.5C 368.807,194.062 371.474,196.729 373,200.5C 376.968,202.374 380.134,205.041 382.5,208.5C 381.167,210.5 379.5,212.167 377.5,213.5C 377.631,212.624 377.298,211.957 376.5,211.5C 375.188,212.46 373.854,212.294 372.5,211C 371,206.833 368.167,204 364,202.5C 363.208,200.413 362.041,198.579 360.5,197C 356.729,195.474 354.062,192.807 352.5,189C 348.729,187.474 346.062,184.807 344.5,181C 340.729,179.474 338.062,176.807 336.5,173C 332.729,171.474 330.062,168.807 328.5,165C 324.729,163.474 322.062,160.807 320.5,157C 316.729,155.474 314.062,152.807 312.5,149C 308.729,147.474 306.062,144.807 304.5,141C 300.729,139.474 298.062,136.807 296.5,133C 292.729,131.474 290.062,128.807 288.5,125C 284.729,123.474 282.062,120.807 280.5,117C 276.729,115.474 274.062,112.807 272.5,109C 268.729,107.474 266.062,104.807 264.5,101C 260.729,99.4737 258.062,96.807 256.5,93C 252.729,91.4737 250.062,88.807 248.5,85C 244.729,83.4737 242.062,80.807 240.5,77C 236.729,75.4737 234.062,72.807 232.5,69C 228.729,67.4737 226.062,64.807 224.5,61C 220.729,59.4737 218.062,56.807 216.5,53C 212.729,51.4737 210.062,48.807 208.5,45C 205.293,43.1605 202.293,41.1605 199.5,39C 202.146,38.5026 204.813,38.3359 207.5,38.5 Z"/></g>
<g><path style="opacity:1" fill="#175098" d="M 263.5,39.5 C 268.833,39.5 274.167,39.5 279.5,39.5C 279.351,40.552 279.517,41.552 280,42.5C 282.167,43.3333 283.667,44.8333 284.5,47C 285.448,47.4828 286.448,47.6495 287.5,47.5C 287.351,48.552 287.517,49.552 288,50.5C 290.167,51.3333 291.667,52.8333 292.5,55C 293.448,55.4828 294.448,55.6495 295.5,55.5C 295.351,56.552 295.517,57.552 296,58.5C 298.167,59.3333 299.667,60.8333 300.5,63C 301.448,63.4828 302.448,63.6495 303.5,63.5C 303.351,64.552 303.517,65.552 304,66.5C 306.167,67.3333 307.667,68.8333 308.5,71C 309.448,71.4828 310.448,71.6495 311.5,71.5C 311.351,72.552 311.517,73.552 312,74.5C 314.167,75.3333 315.667,76.8333 316.5,79C 317.448,79.4828 318.448,79.6495 319.5,79.5C 319.351,80.552 319.517,81.552 320,82.5C 322.167,83.3333 323.667,84.8333 324.5,87C 325.448,87.4828 326.448,87.6495 327.5,87.5C 327.351,88.552 327.517,89.552 328,90.5C 330.167,91.3333 331.667,92.8333 332.5,95C 333.448,95.4828 334.448,95.6495 335.5,95.5C 335.351,96.552 335.517,97.552 336,98.5C 338.167,99.3333 339.667,100.833 340.5,103C 341.448,103.483 342.448,103.649 343.5,103.5C 343.351,104.552 343.517,105.552 344,106.5C 346.167,107.333 347.667,108.833 348.5,111C 349.448,111.483 350.448,111.649 351.5,111.5C 351.351,112.552 351.517,113.552 352,114.5C 354.167,115.333 355.667,116.833 356.5,119C 357.448,119.483 358.448,119.649 359.5,119.5C 359.351,120.552 359.517,121.552 360,122.5C 362.167,123.333 363.667,124.833 364.5,127C 365.448,127.483 366.448,127.649 367.5,127.5C 367.351,128.552 367.517,129.552 368,130.5C 370.167,131.333 371.667,132.833 372.5,135C 373.448,135.483 374.448,135.649 375.5,135.5C 375.351,136.552 375.517,137.552 376,138.5C 378.167,139.333 379.667,140.833 380.5,143C 381.448,143.483 382.448,143.649 383.5,143.5C 383.351,144.552 383.517,145.552 384,146.5C 386.167,147.333 387.667,148.833 388.5,151C 389.448,151.483 390.448,151.649 391.5,151.5C 391.351,152.552 391.517,153.552 392,154.5C 394.167,155.333 395.667,156.833 396.5,159C 397.448,159.483 398.448,159.649 399.5,159.5C 399.5,164.833 399.5,170.167 399.5,175.5C 398.127,175.657 396.793,175.49 395.5,175C 392.641,173.309 391.308,170.809 391.5,167.5C 390.127,167.657 388.793,167.49 387.5,167C 384.641,165.309 383.308,162.809 383.5,159.5C 382.127,159.657 380.793,159.49 379.5,159C 376.641,157.309 375.308,154.809 375.5,151.5C 374.127,151.657 372.793,151.49 371.5,151C 368.641,149.309 367.308,146.809 367.5,143.5C 366.127,143.657 364.793,143.49 363.5,143C 360.641,141.309 359.308,138.809 359.5,135.5C 358.127,135.657 356.793,135.49 355.5,135C 352.641,133.309 351.308,130.809 351.5,127.5C 350.127,127.657 348.793,127.49 347.5,127C 344.641,125.309 343.308,122.809 343.5,119.5C 342.127,119.657 340.793,119.49 339.5,119C 336.641,117.309 335.308,114.809 335.5,111.5C 334.127,111.657 332.793,111.49 331.5,111C 328.641,109.309 327.308,106.809 327.5,103.5C 326.127,103.657 324.793,103.49 323.5,103C 320.641,101.309 319.308,98.8091 319.5,95.5C 318.127,95.6567 316.793,95.49 315.5,95C 312.641,93.3091 311.308,90.8091 311.5,87.5C 310.127,87.6567 308.793,87.49 307.5,87C 304.641,85.3091 303.308,82.8091 303.5,79.5C 302.127,79.6567 300.793,79.49 299.5,79C 296.641,77.3091 295.308,74.8091 295.5,71.5C 294.127,71.6567 292.793,71.49 291.5,71C 288.641,69.3091 287.308,66.8091 287.5,63.5C 286.127,63.6567 284.793,63.49 283.5,63C 280.641,61.3091 279.308,58.8091 279.5,55.5C 278.127,55.6567 276.793,55.49 275.5,55C 272.641,53.3091 271.308,50.8091 271.5,47.5C 270.127,47.6567 268.793,47.49 267.5,47C 264.641,45.3091 263.308,42.8091 263.5,39.5 Z"/></g>
<g><path style="opacity:1" fill="#194c95" d="M 239.5,38.5 C 255.5,38.5 271.5,38.5 287.5,38.5C 294.359,38.083 300.692,39.583 306.5,43C 308.062,46.807 310.729,49.4737 314.5,51C 316.062,54.807 318.729,57.4737 322.5,59C 324.062,62.807 326.729,65.4737 330.5,67C 332.062,70.807 334.729,73.4737 338.5,75C 340.062,78.807 342.729,81.4737 346.5,83C 348.062,86.807 350.729,89.4737 354.5,91C 356.062,94.807 358.729,97.4737 362.5,99C 364.062,102.807 366.729,105.474 370.5,107C 372.062,110.807 374.729,113.474 378.5,115C 380.062,118.807 382.729,121.474 386.5,123C 388.062,126.807 390.729,129.474 394.5,131C 396.066,133.326 397.732,135.492 399.5,137.5C 399.5,144.833 399.5,152.167 399.5,159.5C 398.448,159.649 397.448,159.483 396.5,159C 395.667,156.833 394.167,155.333 392,154.5C 391.517,153.552 391.351,152.552 391.5,151.5C 390.448,151.649 389.448,151.483 388.5,151C 387.667,148.833 386.167,147.333 384,146.5C 383.517,145.552 383.351,144.552 383.5,143.5C 382.448,143.649 381.448,143.483 380.5,143C 379.667,140.833 378.167,139.333 376,138.5C 375.517,137.552 375.351,136.552 375.5,135.5C 374.448,135.649 373.448,135.483 372.5,135C 371.667,132.833 370.167,131.333 368,130.5C 367.517,129.552 367.351,128.552 367.5,127.5C 366.448,127.649 365.448,127.483 364.5,127C 363.667,124.833 362.167,123.333 360,122.5C 359.517,121.552 359.351,120.552 359.5,119.5C 358.448,119.649 357.448,119.483 356.5,119C 355.667,116.833 354.167,115.333 352,114.5C 351.517,113.552 351.351,112.552 351.5,111.5C 350.448,111.649 349.448,111.483 348.5,111C 347.667,108.833 346.167,107.333 344,106.5C 343.517,105.552 343.351,104.552 343.5,103.5C 342.448,103.649 341.448,103.483 340.5,103C 339.667,100.833 338.167,99.3333 336,98.5C 335.517,97.552 335.351,96.552 335.5,95.5C 334.448,95.6495 333.448,95.4828 332.5,95C 331.667,92.8333 330.167,91.3333 328,90.5C 327.517,89.552 327.351,88.552 327.5,87.5C 326.448,87.6495 325.448,87.4828 324.5,87C 323.667,84.8333 322.167,83.3333 320,82.5C 319.517,81.552 319.351,80.552 319.5,79.5C 318.448,79.6495 317.448,79.4828 316.5,79C 315.667,76.8333 314.167,75.3333 312,74.5C 311.517,73.552 311.351,72.552 311.5,71.5C 310.448,71.6495 309.448,71.4828 308.5,71C 307.667,68.8333 306.167,67.3333 304,66.5C 303.517,65.552 303.351,64.552 303.5,63.5C 302.448,63.6495 301.448,63.4828 300.5,63C 299.667,60.8333 298.167,59.3333 296,58.5C 295.517,57.552 295.351,56.552 295.5,55.5C 294.448,55.6495 293.448,55.4828 292.5,55C 291.667,52.8333 290.167,51.3333 288,50.5C 287.517,49.552 287.351,48.552 287.5,47.5C 286.448,47.6495 285.448,47.4828 284.5,47C 283.667,44.8333 282.167,43.3333 280,42.5C 279.517,41.552 279.351,40.552 279.5,39.5C 274.167,39.5 268.833,39.5 263.5,39.5C 255.316,39.8257 247.316,39.4924 239.5,38.5 Z"/></g>
<g><path style="opacity:1" fill="#1c428a" d="M 399.5,38.5 C 399.5,60.8333 399.5,83.1667 399.5,105.5C 397.18,103.774 394.513,103.107 391.5,103.5C 392.5,97.1667 389.833,94.5 383.5,95.5C 384.5,89.1667 381.833,86.5 375.5,87.5C 376.5,81.1667 373.833,78.5 367.5,79.5C 368.5,73.1667 365.833,70.5 359.5,71.5C 360.5,65.1667 357.833,62.5 351.5,63.5C 352.5,57.1667 349.833,54.5 343.5,55.5C 344.5,49.1667 341.833,46.5 335.5,47.5C 336.466,41.2987 333.8,38.4654 327.5,39C 351.498,38.5 375.498,38.3334 399.5,38.5 Z"/></g>
<g><path style="opacity:1" fill="#1261ab" d="M 170.5,44.5 C 171.794,45.2899 172.961,46.2899 174,47.5C 174.333,47.1667 174.667,46.8333 175,46.5C 175.498,49.4816 175.665,52.4816 175.5,55.5C 178.167,55.5 180.833,55.5 183.5,55.5C 183.5,58.1667 183.5,60.8333 183.5,63.5C 186.167,63.5 188.833,63.5 191.5,63.5C 191.5,66.1667 191.5,68.8333 191.5,71.5C 194.167,71.5 196.833,71.5 199.5,71.5C 199.5,74.1667 199.5,76.8333 199.5,79.5C 202.167,79.5 204.833,79.5 207.5,79.5C 207.5,82.1667 207.5,84.8333 207.5,87.5C 210.167,87.5 212.833,87.5 215.5,87.5C 215.5,90.1667 215.5,92.8333 215.5,95.5C 218.167,95.5 220.833,95.5 223.5,95.5C 223.5,98.1667 223.5,100.833 223.5,103.5C 226.167,103.5 228.833,103.5 231.5,103.5C 231.5,106.167 231.5,108.833 231.5,111.5C 234.167,111.5 236.833,111.5 239.5,111.5C 239.5,114.167 239.5,116.833 239.5,119.5C 242.167,119.5 244.833,119.5 247.5,119.5C 247.5,122.167 247.5,124.833 247.5,127.5C 250.167,127.5 252.833,127.5 255.5,127.5C 255.5,130.167 255.5,132.833 255.5,135.5C 258.167,135.5 260.833,135.5 263.5,135.5C 263.5,138.167 263.5,140.833 263.5,143.5C 266.167,143.5 268.833,143.5 271.5,143.5C 271.5,146.167 271.5,148.833 271.5,151.5C 274.167,151.5 276.833,151.5 279.5,151.5C 279.5,154.167 279.5,156.833 279.5,159.5C 282.167,159.5 284.833,159.5 287.5,159.5C 287.5,162.167 287.5,164.833 287.5,167.5C 290.167,167.5 292.833,167.5 295.5,167.5C 294.88,171.302 295.714,174.635 298,177.5C 298.098,180.522 298.932,183.189 300.5,185.5C 298.042,194.209 295.375,202.875 292.5,211.5C 289.035,202.327 285.869,192.994 283,183.5C 278.414,177.761 273.247,177.095 267.5,181.5C 266.018,181.124 264.685,181.124 263.5,181.5C 265.021,179.714 265.354,177.881 264.5,176C 266.709,175.043 266.543,173.876 264,172.5C 263.282,173.451 262.449,173.617 261.5,173C 260.333,171.833 259.167,170.667 258,169.5C 258.5,166 257,164.5 253.5,165C 252.333,163.833 251.167,162.667 250,161.5C 250.5,158 249,156.5 245.5,157C 244.333,155.833 243.167,154.667 242,153.5C 242.5,150 241,148.5 237.5,149C 236.333,147.833 235.167,146.667 234,145.5C 234.5,142 233,140.5 229.5,141C 228.333,139.833 227.167,138.667 226,137.5C 226.5,134 225,132.5 221.5,133C 220.333,131.833 219.167,130.667 218,129.5C 218.5,126 217,124.5 213.5,125C 212.333,123.833 211.167,122.667 210,121.5C 210.5,118 209,116.5 205.5,117C 204.333,115.833 203.167,114.667 202,113.5C 202.5,110 201,108.5 197.5,109C 196.333,107.833 195.167,106.667 194,105.5C 194.5,102 193,100.5 189.5,101C 188.333,99.8333 187.167,98.6667 186,97.5C 186.5,94 185,92.5 181.5,93C 180.333,91.8333 179.167,90.6667 178,89.5C 178.5,86 177,84.5 173.5,85C 172.333,83.8333 171.167,82.6667 170,81.5C 170.5,78 169,76.5 165.5,77C 164.333,75.8333 163.167,74.6667 162,73.5C 162.5,70 161,68.5 157.5,69C 156.333,67.8333 155.167,66.6667 154,65.5C 153.735,61.217 155.235,60.5503 158.5,63.5C 159.739,61.9928 159.405,60.8261 157.5,60C 158.167,59 158.833,58 159.5,57C 159.272,56.6012 158.938,56.4346 158.5,56.5C 162.167,52.1667 166.167,48.1667 170.5,44.5 Z"/></g>
<g><path style="opacity:1" fill="#1065ad" d="M 158.5,56.5 C 158.938,56.4346 159.272,56.6012 159.5,57C 158.833,58 158.167,59 157.5,60C 159.405,60.8261 159.739,61.9928 158.5,63.5C 155.235,60.5503 153.735,61.217 154,65.5C 155.167,66.6667 156.333,67.8333 157.5,69C 161,68.5 162.5,70 162,73.5C 163.167,74.6667 164.333,75.8333 165.5,77C 169,76.5 170.5,78 170,81.5C 171.167,82.6667 172.333,83.8333 173.5,85C 177,84.5 178.5,86 178,89.5C 179.167,90.6667 180.333,91.8333 181.5,93C 185,92.5 186.5,94 186,97.5C 187.167,98.6667 188.333,99.8333 189.5,101C 193,100.5 194.5,102 194,105.5C 195.167,106.667 196.333,107.833 197.5,109C 201,108.5 202.5,110 202,113.5C 203.167,114.667 204.333,115.833 205.5,117C 209,116.5 210.5,118 210,121.5C 211.167,122.667 212.333,123.833 213.5,125C 217,124.5 218.5,126 218,129.5C 219.167,130.667 220.333,131.833 221.5,133C 225,132.5 226.5,134 226,137.5C 227.167,138.667 228.333,139.833 229.5,141C 233,140.5 234.5,142 234,145.5C 235.167,146.667 236.333,147.833 237.5,149C 241,148.5 242.5,150 242,153.5C 243.167,154.667 244.333,155.833 245.5,157C 249,156.5 250.5,158 250,161.5C 251.167,162.667 252.333,163.833 253.5,165C 257,164.5 258.5,166 258,169.5C 259.167,170.667 260.333,171.833 261.5,173C 262.449,173.617 263.282,173.451 264,172.5C 266.543,173.876 266.709,175.043 264.5,176C 265.354,177.881 265.021,179.714 263.5,181.5C 264.685,181.124 266.018,181.124 267.5,181.5C 264.374,191.545 261.041,201.545 257.5,211.5C 254.89,205.005 252.89,198.338 251.5,191.5C 251.616,188.14 251.949,184.807 252.5,181.5C 251.5,181.5 250.5,181.5 249.5,181.5C 249.67,180.178 249.337,179.011 248.5,178C 250.424,177.821 252.091,177.654 253.5,177.5C 251.773,174.107 249.106,171.774 245.5,170.5C 244.167,166.5 241.5,163.833 237.5,162.5C 236.167,158.5 233.5,155.833 229.5,154.5C 228.167,150.5 225.5,147.833 221.5,146.5C 220.167,142.5 217.5,139.833 213.5,138.5C 212.167,134.5 209.5,131.833 205.5,130.5C 204.167,126.5 201.5,123.833 197.5,122.5C 196.167,118.5 193.5,115.833 189.5,114.5C 188.248,112.999 187.248,111.332 186.5,109.5C 181.833,105.5 177.167,101.5 172.5,97.5C 171.167,93.5 168.5,90.8333 164.5,89.5C 163.167,85.5 160.5,82.8333 156.5,81.5C 155.167,77.5 152.5,74.8333 148.5,73.5C 147.05,72.1502 146.383,70.4835 146.5,68.5C 150.167,64.1667 154.167,60.1667 158.5,56.5 Z"/></g>
<g><path style="opacity:1" fill="#0f68b0" d="M 146.5,68.5 C 146.383,70.4835 147.05,72.1502 148.5,73.5C 152.5,74.8333 155.167,77.5 156.5,81.5C 160.5,82.8333 163.167,85.5 164.5,89.5C 168.5,90.8333 171.167,93.5 172.5,97.5C 177.167,101.5 181.833,105.5 186.5,109.5C 187.248,111.332 188.248,112.999 189.5,114.5C 193.5,115.833 196.167,118.5 197.5,122.5C 201.5,123.833 204.167,126.5 205.5,130.5C 209.5,131.833 212.167,134.5 213.5,138.5C 217.5,139.833 220.167,142.5 221.5,146.5C 225.5,147.833 228.167,150.5 229.5,154.5C 233.5,155.833 236.167,158.5 237.5,162.5C 241.5,163.833 244.167,166.5 245.5,170.5C 249.106,171.774 251.773,174.107 253.5,177.5C 252.091,177.654 250.424,177.821 248.5,178C 249.337,179.011 249.67,180.178 249.5,181.5C 250.5,181.5 251.5,181.5 252.5,181.5C 251.949,184.807 251.616,188.14 251.5,191.5C 250.556,187.206 248.556,183.372 245.5,180C 239.031,177.234 235.031,179.234 233.5,186C 234.536,190.939 235.87,195.772 237.5,200.5C 237.92,202.674 237.92,204.674 237.5,206.5C 235.741,207.754 234.241,207.421 233,205.5C 231.949,200.761 231.115,196.094 230.5,191.5C 228.43,183.099 223.097,178.099 214.5,176.5C 211.947,175.461 209.78,173.794 208,171.5C 207.51,170.207 207.343,168.873 207.5,167.5C 204.191,167.692 201.691,166.359 200,163.5C 199.51,162.207 199.343,160.873 199.5,159.5C 196.191,159.692 193.691,158.359 192,155.5C 191.51,154.207 191.343,152.873 191.5,151.5C 188.191,151.692 185.691,150.359 184,147.5C 183.51,146.207 183.343,144.873 183.5,143.5C 180.191,143.692 177.691,142.359 176,139.5C 175.51,138.207 175.343,136.873 175.5,135.5C 172.191,135.692 169.691,134.359 168,131.5C 167.51,130.207 167.343,128.873 167.5,127.5C 164.191,127.692 161.691,126.359 160,123.5C 159.51,122.207 159.343,120.873 159.5,119.5C 156.191,119.692 153.691,118.359 152,115.5C 151.51,114.207 151.343,112.873 151.5,111.5C 148.191,111.692 145.691,110.359 144,107.5C 143.51,106.207 143.343,104.873 143.5,103.5C 140.191,103.692 137.691,102.359 136,99.5C 135.51,98.2068 135.343,96.8734 135.5,95.5C 132.191,95.6923 129.691,94.3589 128,91.5C 126.178,91.9679 124.011,92.3012 121.5,92.5C 122.167,91.8333 122.833,91.1667 123.5,90.5C 131.167,83.1667 138.833,75.8333 146.5,68.5 Z"/></g>
<g><path style="opacity:1" fill="#1d4289" d="M 123.5,90.5 C 122.833,91.1667 122.167,91.8333 121.5,92.5C 115.14,98.1937 109.14,104.194 103.5,110.5C 92.5824,121.753 81.5824,133.087 70.5,144.5C 59.5,154.833 48.8333,165.5 38.5,176.5C 29.8333,184.5 21.5,192.833 13.5,201.5C 9.12778,205.874 4.46112,209.874 -0.5,213.5C -0.5,202.5 -0.5,191.5 -0.5,180.5C 29.632,150.868 59.632,121.035 89.5,91C 100.828,90.5001 112.162,90.3335 123.5,90.5 Z"/></g>
<g><path style="opacity:1" fill="#0e6db6" d="M 214.5,176.5 C 206.364,175.613 199.364,177.946 193.5,183.5C 190.82,180.318 187.487,178.152 183.5,177C 178.129,176.324 172.796,176.491 167.5,177.5C 166.325,177.719 165.325,177.386 164.5,176.5C 165.582,176.251 166.915,176.085 168.5,176C 167.556,173.281 167.223,170.448 167.5,167.5C 164.833,167.5 162.167,167.5 159.5,167.5C 159.5,164.833 159.5,162.167 159.5,159.5C 156.833,159.5 154.167,159.5 151.5,159.5C 151.5,156.833 151.5,154.167 151.5,151.5C 148.833,151.5 146.167,151.5 143.5,151.5C 143.5,148.833 143.5,146.167 143.5,143.5C 140.833,143.5 138.167,143.5 135.5,143.5C 135.5,140.833 135.5,138.167 135.5,135.5C 132.833,135.5 130.167,135.5 127.5,135.5C 127.5,132.833 127.5,130.167 127.5,127.5C 124.833,127.5 122.167,127.5 119.5,127.5C 119.5,124.833 119.5,122.167 119.5,119.5C 116.833,119.5 114.167,119.5 111.5,119.5C 111.665,116.482 111.498,113.482 111,110.5C 108.502,111.779 106.002,111.779 103.5,110.5C 109.14,104.194 115.14,98.1937 121.5,92.5C 124.011,92.3012 126.178,91.9679 128,91.5C 129.691,94.3589 132.191,95.6923 135.5,95.5C 135.343,96.8734 135.51,98.2068 136,99.5C 137.691,102.359 140.191,103.692 143.5,103.5C 143.343,104.873 143.51,106.207 144,107.5C 145.691,110.359 148.191,111.692 151.5,111.5C 151.343,112.873 151.51,114.207 152,115.5C 153.691,118.359 156.191,119.692 159.5,119.5C 159.343,120.873 159.51,122.207 160,123.5C 161.691,126.359 164.191,127.692 167.5,127.5C 167.343,128.873 167.51,130.207 168,131.5C 169.691,134.359 172.191,135.692 175.5,135.5C 175.343,136.873 175.51,138.207 176,139.5C 177.691,142.359 180.191,143.692 183.5,143.5C 183.343,144.873 183.51,146.207 184,147.5C 185.691,150.359 188.191,151.692 191.5,151.5C 191.343,152.873 191.51,154.207 192,155.5C 193.691,158.359 196.191,159.692 199.5,159.5C 199.343,160.873 199.51,162.207 200,163.5C 201.691,166.359 204.191,167.692 207.5,167.5C 207.343,168.873 207.51,170.207 208,171.5C 209.78,173.794 211.947,175.461 214.5,176.5 Z"/></g>
<g><path style="opacity:1" fill="#0c73bc" d="M 103.5,110.5 C 106.002,111.779 108.502,111.779 111,110.5C 111.498,113.482 111.665,116.482 111.5,119.5C 114.167,119.5 116.833,119.5 119.5,119.5C 119.5,122.167 119.5,124.833 119.5,127.5C 122.167,127.5 124.833,127.5 127.5,127.5C 127.5,130.167 127.5,132.833 127.5,135.5C 130.167,135.5 132.833,135.5 135.5,135.5C 135.5,138.167 135.5,140.833 135.5,143.5C 138.167,143.5 140.833,143.5 143.5,143.5C 143.5,146.167 143.5,148.833 143.5,151.5C 146.167,151.5 148.833,151.5 151.5,151.5C 151.5,154.167 151.5,156.833 151.5,159.5C 154.167,159.5 156.833,159.5 159.5,159.5C 159.5,162.167 159.5,164.833 159.5,167.5C 162.167,167.5 164.833,167.5 167.5,167.5C 167.223,170.448 167.556,173.281 168.5,176C 166.915,176.085 165.582,176.251 164.5,176.5C 165.325,177.386 166.325,177.719 167.5,177.5C 164.978,179.361 162.478,181.361 160,183.5C 153.719,177.386 146.219,175.219 137.5,177C 134.217,178.561 131.383,180.727 129,183.5C 126.836,187.829 124.669,192.162 122.5,196.5C 121.295,195.328 121.295,193.995 122.5,192.5C 121.758,191.713 120.925,191.047 120,190.5C 118.951,191.517 117.784,191.684 116.5,191C 112.667,186.5 108.5,182.333 104,178.5C 103.517,177.552 103.351,176.552 103.5,175.5C 102.448,175.649 101.448,175.483 100.5,175C 99.6667,172.833 98.1667,171.333 96,170.5C 95.5172,169.552 95.3505,168.552 95.5,167.5C 94.448,167.649 93.448,167.483 92.5,167C 91.6667,164.833 90.1667,163.333 88,162.5C 87.5172,161.552 87.3505,160.552 87.5,159.5C 86.448,159.649 85.448,159.483 84.5,159C 83.6667,156.833 82.1667,155.333 80,154.5C 79.5172,153.552 79.3505,152.552 79.5,151.5C 78.448,151.649 77.448,151.483 76.5,151C 74.7069,148.612 72.7069,146.446 70.5,144.5C 81.5824,133.087 92.5824,121.753 103.5,110.5 Z"/></g>
<g><path style="opacity:1" fill="#0a7ac2" d="M 70.5,144.5 C 72.7069,146.446 74.7069,148.612 76.5,151C 77.448,151.483 78.448,151.649 79.5,151.5C 79.3505,152.552 79.5172,153.552 80,154.5C 82.1667,155.333 83.6667,156.833 84.5,159C 85.448,159.483 86.448,159.649 87.5,159.5C 87.3505,160.552 87.5172,161.552 88,162.5C 90.1667,163.333 91.6667,164.833 92.5,167C 93.448,167.483 94.448,167.649 95.5,167.5C 95.3505,168.552 95.5172,169.552 96,170.5C 98.1667,171.333 99.6667,172.833 100.5,175C 101.448,175.483 102.448,175.649 103.5,175.5C 103.351,176.552 103.517,177.552 104,178.5C 108.5,182.333 112.667,186.5 116.5,191C 117.784,191.684 118.951,191.517 120,190.5C 120.925,191.047 121.758,191.713 122.5,192.5C 121.295,193.995 121.295,195.328 122.5,196.5C 120.216,202.352 117.55,208.019 114.5,213.5C 109.059,202.286 103.893,190.952 99,179.5C 93.967,175.221 89.3003,175.554 85,180.5C 84.3333,182.5 84.3333,184.5 85,186.5C 89.5122,196.855 94.0122,207.188 98.5,217.5C 98.6567,218.873 98.49,220.207 98,221.5C 97.6667,221.167 97.3333,220.833 97,220.5C 95.7834,222.52 95.6167,224.52 96.5,226.5C 95.9017,227.795 95.4017,229.128 95,230.5C 94.2496,229.874 93.4162,229.374 92.5,229C 75.8333,212 59.1667,195 42.5,178C 41.0028,176.772 39.6694,176.272 38.5,176.5C 48.8333,165.5 59.5,154.833 70.5,144.5 Z"/></g>
<g><path style="opacity:1" fill="#fafcfc" d="M 122.5,196.5 C 124.669,192.162 126.836,187.829 129,183.5C 131.383,180.727 134.217,178.561 137.5,177C 146.219,175.219 153.719,177.386 160,183.5C 162.478,181.361 164.978,179.361 167.5,177.5C 172.796,176.491 178.129,176.324 183.5,177C 187.487,178.152 190.82,180.318 193.5,183.5C 199.364,177.946 206.364,175.613 214.5,176.5C 223.097,178.099 228.43,183.099 230.5,191.5C 230.667,204.837 230.5,218.171 230,231.5C 229.5,233.333 228.333,234.5 226.5,235C 223.833,235.667 221.167,235.667 218.5,235C 216.667,234.5 215.5,233.333 215,231.5C 214.021,218.808 213.021,206.141 212,193.5C 208.744,191.571 205.244,191.071 201.5,192C 199.548,193.412 198.215,195.245 197.5,197.5C 196.669,208.659 196.169,219.993 196,231.5C 193.089,235.277 189.256,236.444 184.5,235C 182.19,233.363 180.69,231.196 180,228.5C 179.667,217.5 179.333,206.5 179,195.5C 178.5,193.667 177.333,192.5 175.5,192C 169.617,190.078 165.451,191.911 163,197.5C 162.5,208.828 162.333,220.162 162.5,231.5C 158.547,235.749 153.88,236.582 148.5,234C 147.874,233.25 147.374,232.416 147,231.5C 146.667,218.5 146.333,205.5 146,192.5C 143.978,191.009 142.312,191.342 141,193.5C 135.881,204.069 131.047,214.736 126.5,225.5C 124.891,228.53 122.891,231.363 120.5,234C 114.286,236.877 109.12,235.71 105,230.5C 103.287,225.808 101.12,221.475 98.5,217.5C 94.0122,207.188 89.5122,196.855 85,186.5C 84.3333,184.5 84.3333,182.5 85,180.5C 89.3003,175.554 93.967,175.221 99,179.5C 103.893,190.952 109.059,202.286 114.5,213.5C 117.55,208.019 120.216,202.352 122.5,196.5 Z"/></g>
<g><path style="opacity:1" fill="#fafcfc" d="M 251.5,191.5 C 252.89,198.338 254.89,205.005 257.5,211.5C 261.041,201.545 264.374,191.545 267.5,181.5C 273.247,177.095 278.414,177.761 283,183.5C 285.869,192.994 289.035,202.327 292.5,211.5C 295.375,202.875 298.042,194.209 300.5,185.5C 301.69,183.645 303.023,181.812 304.5,180C 310.129,177.319 314.129,178.819 316.5,184.5C 314.109,195.006 311.109,205.34 307.5,215.5C 304.861,221.671 302.361,228.004 300,234.5C 293.521,239.199 288.187,238.199 284,231.5C 281.198,222.094 278.198,212.761 275,203.5C 271.406,213.446 267.906,223.446 264.5,233.5C 259.051,237.765 253.884,237.432 249,232.5C 245.232,221.686 241.398,211.019 237.5,200.5C 235.87,195.772 234.536,190.939 233.5,186C 235.031,179.234 239.031,177.234 245.5,180C 248.556,183.372 250.556,187.206 251.5,191.5 Z"/></g>
<g><path style="opacity:1" fill="#077fc8" d="M 38.5,176.5 C 39.6694,176.272 41.0028,176.772 42.5,178C 59.1667,195 75.8333,212 92.5,229C 93.4162,229.374 94.2496,229.874 95,230.5C 95.4017,229.128 95.9017,227.795 96.5,226.5C 95.6167,224.52 95.7834,222.52 97,220.5C 97.3333,220.833 97.6667,221.167 98,221.5C 98.49,220.207 98.6567,218.873 98.5,217.5C 101.12,221.475 103.287,225.808 105,230.5C 109.12,235.71 114.286,236.877 120.5,234C 122.891,231.363 124.891,228.53 126.5,225.5C 126.683,227.936 126.016,230.103 124.5,232C 125.308,232.308 125.975,232.808 126.5,233.5C 124.983,235.185 123.316,236.685 121.5,238C 118.436,238.149 115.436,237.649 112.5,236.5C 109.788,236.453 107.622,237.453 106,239.5C 103.92,236.716 103.253,237.049 104,240.5C 143.5,278.667 182.333,317.5 220.5,357C 222.167,358 223.833,359 225.5,360C 227.381,359.904 229.047,360.071 230.5,360.5C 219.5,372.167 208.167,383.5 196.5,394.5C 195.288,393.77 194.288,392.77 193.5,391.5C 192.914,391.709 192.414,392.043 192,392.5C 191.502,389.518 191.335,386.518 191.5,383.5C 188.833,383.5 186.167,383.5 183.5,383.5C 183.5,380.833 183.5,378.167 183.5,375.5C 180.833,375.5 178.167,375.5 175.5,375.5C 175.5,372.833 175.5,370.167 175.5,367.5C 172.833,367.5 170.167,367.5 167.5,367.5C 167.5,364.833 167.5,362.167 167.5,359.5C 164.833,359.5 162.167,359.5 159.5,359.5C 159.5,356.833 159.5,354.167 159.5,351.5C 156.833,351.5 154.167,351.5 151.5,351.5C 151.5,348.833 151.5,346.167 151.5,343.5C 148.833,343.5 146.167,343.5 143.5,343.5C 143.5,340.833 143.5,338.167 143.5,335.5C 140.833,335.5 138.167,335.5 135.5,335.5C 135.5,332.833 135.5,330.167 135.5,327.5C 132.833,327.5 130.167,327.5 127.5,327.5C 127.5,324.833 127.5,322.167 127.5,319.5C 124.833,319.5 122.167,319.5 119.5,319.5C 119.5,316.833 119.5,314.167 119.5,311.5C 116.833,311.5 114.167,311.5 111.5,311.5C 111.5,308.833 111.5,306.167 111.5,303.5C 108.833,303.5 106.167,303.5 103.5,303.5C 103.5,300.833 103.5,298.167 103.5,295.5C 100.833,295.5 98.1667,295.5 95.5,295.5C 95.5,292.833 95.5,290.167 95.5,287.5C 92.8333,287.5 90.1667,287.5 87.5,287.5C 87.5,284.833 87.5,282.167 87.5,279.5C 84.8333,279.5 82.1667,279.5 79.5,279.5C 79.5,276.833 79.5,274.167 79.5,271.5C 76.8333,271.5 74.1667,271.5 71.5,271.5C 71.5,268.833 71.5,266.167 71.5,263.5C 68.8333,263.5 66.1667,263.5 63.5,263.5C 63.5,260.833 63.5,258.167 63.5,255.5C 60.8333,255.5 58.1667,255.5 55.5,255.5C 55.5,252.833 55.5,250.167 55.5,247.5C 52.8333,247.5 50.1667,247.5 47.5,247.5C 47.5,244.833 47.5,242.167 47.5,239.5C 44.8333,239.5 42.1667,239.5 39.5,239.5C 39.5,236.833 39.5,234.167 39.5,231.5C 36.8333,231.5 34.1667,231.5 31.5,231.5C 31.5,228.833 31.5,226.167 31.5,223.5C 28.8333,223.5 26.1667,223.5 23.5,223.5C 23.5,220.833 23.5,218.167 23.5,215.5C 20.8333,215.5 18.1667,215.5 15.5,215.5C 15.6646,212.482 15.498,209.482 15,206.5C 14.6667,206.833 14.3333,207.167 14,207.5C 13.5,206.333 12.6667,205.5 11.5,205C 12.5,204 13.5,203 14.5,202C 14.2716,201.601 13.9382,201.435 13.5,201.5C 21.5,192.833 29.8333,184.5 38.5,176.5 Z"/></g>
<g><path style="opacity:1" fill="#fefefe" d="M 399.5,192.5 C 399.5,261.5 399.5,330.5 399.5,399.5C 330.5,399.5 261.5,399.5 192.5,399.5C 192.5,399.167 192.5,398.833 192.5,398.5C 194.167,397.5 195.5,396.167 196.5,394.5C 208.167,383.5 219.5,372.167 230.5,360.5C 241.5,350.167 252.167,339.5 262.5,328.5C 268.833,322.833 274.833,316.833 280.5,310.5C 288.833,302.833 296.833,294.833 304.5,286.5C 313.5,278.167 322.167,269.5 330.5,260.5C 342.833,248.833 354.833,236.833 366.5,224.5C 370.5,221.167 374.167,217.5 377.5,213.5C 379.5,212.167 381.167,210.5 382.5,208.5C 388.167,203.167 393.833,197.833 399.5,192.5 Z"/></g>
<g><path style="opacity:1" fill="#1075bd" d="M 197.5,197.5 C 197.333,208.505 197.5,219.505 198,230.5C 200.069,231.264 202.236,231.764 204.5,232C 205.977,234.148 207.977,235.482 210.5,236C 211.19,238.696 212.69,240.863 215,242.5C 215.494,244.134 215.66,245.801 215.5,247.5C 221.167,247.167 223.833,249.833 223.5,255.5C 229.167,255.167 231.833,257.833 231.5,263.5C 237.167,263.167 239.833,265.833 239.5,271.5C 245.167,271.167 247.833,273.833 247.5,279.5C 253.167,279.167 255.833,281.833 255.5,287.5C 261.167,287.167 263.833,289.833 263.5,295.5C 269.167,295.167 271.833,297.833 271.5,303.5C 276.59,303.266 279.59,305.599 280.5,310.5C 274.833,316.833 268.833,322.833 262.5,328.5C 261.207,327.355 260.041,327.689 259,329.5C 258.692,328.692 258.192,328.025 257.5,327.5C 257.167,328.167 256.833,328.833 256.5,329.5C 253.245,327.627 250.412,325.293 248,322.5C 247.517,321.552 247.351,320.552 247.5,319.5C 246.448,319.649 245.448,319.483 244.5,319C 243.667,316.833 242.167,315.333 240,314.5C 239.517,313.552 239.351,312.552 239.5,311.5C 238.448,311.649 237.448,311.483 236.5,311C 235.667,308.833 234.167,307.333 232,306.5C 231.517,305.552 231.351,304.552 231.5,303.5C 230.448,303.649 229.448,303.483 228.5,303C 227.667,300.833 226.167,299.333 224,298.5C 223.517,297.552 223.351,296.552 223.5,295.5C 222.448,295.649 221.448,295.483 220.5,295C 219.667,292.833 218.167,291.333 216,290.5C 215.517,289.552 215.351,288.552 215.5,287.5C 214.448,287.649 213.448,287.483 212.5,287C 211.667,284.833 210.167,283.333 208,282.5C 207.517,281.552 207.351,280.552 207.5,279.5C 206.448,279.649 205.448,279.483 204.5,279C 203.667,276.833 202.167,275.333 200,274.5C 199.517,273.552 199.351,272.552 199.5,271.5C 198.448,271.649 197.448,271.483 196.5,271C 195.667,268.833 194.167,267.333 192,266.5C 191.517,265.552 191.351,264.552 191.5,263.5C 190.448,263.649 189.448,263.483 188.5,263C 187.667,260.833 186.167,259.333 184,258.5C 183.517,257.552 183.351,256.552 183.5,255.5C 182.448,255.649 181.448,255.483 180.5,255C 179.667,252.833 178.167,251.333 176,250.5C 175.517,249.552 175.351,248.552 175.5,247.5C 174.448,247.649 173.448,247.483 172.5,247C 171.667,244.833 170.167,243.333 168,242.5C 167.83,240.285 167.163,238.285 166,236.5C 165.517,237.448 165.351,238.448 165.5,239.5C 162.813,239.664 160.146,239.497 157.5,239C 159.81,238.503 162.143,238.337 164.5,238.5C 163.551,236.263 162.884,233.929 162.5,231.5C 162.333,220.162 162.5,208.828 163,197.5C 165.451,191.911 169.617,190.078 175.5,192C 177.333,192.5 178.5,193.667 179,195.5C 179.333,206.5 179.667,217.5 180,228.5C 180.69,231.196 182.19,233.363 184.5,235C 189.256,236.444 193.089,235.277 196,231.5C 196.169,219.993 196.669,208.659 197.5,197.5 Z"/></g>
<g><path style="opacity:1" fill="#1262aa" d="M 316.5,184.5 C 317.864,186.22 318.864,188.22 319.5,190.5C 322.679,191.184 325.179,192.851 327,195.5C 327.49,196.793 327.657,198.127 327.5,199.5C 328.873,199.343 330.207,199.51 331.5,200C 334.359,201.691 335.692,204.191 335.5,207.5C 336.873,207.343 338.207,207.51 339.5,208C 342.359,209.691 343.692,212.191 343.5,215.5C 344.873,215.343 346.207,215.51 347.5,216C 350.359,217.691 351.692,220.191 351.5,223.5C 355.285,223.973 358.118,225.973 360,229.5C 361.333,226.833 363.333,224.833 366,223.5C 366.399,223.728 366.565,224.062 366.5,224.5C 354.833,236.833 342.833,248.833 330.5,260.5C 329.394,259.851 328.394,259.517 327.5,259.5C 328.641,258.575 328.641,257.741 327.5,257C 328.678,256.033 330.011,255.533 331.5,255.5C 330.32,252.902 328.32,251.236 325.5,250.5C 321.5,245.833 317.5,241.167 313.5,236.5C 307.772,233.705 305.438,229.038 306.5,222.5C 307.822,222.33 308.989,222.663 310,223.5C 310.188,221.939 309.355,221.272 307.5,221.5C 307.5,219.5 307.5,217.5 307.5,215.5C 311.109,205.34 314.109,195.006 316.5,184.5 Z"/></g>
<g><path style="opacity:1" fill="#0484cd" d="M 13.5,201.5 C 13.9382,201.435 14.2716,201.601 14.5,202C 13.5,203 12.5,204 11.5,205C 12.6667,205.5 13.5,206.333 14,207.5C 14.3333,207.167 14.6667,206.833 15,206.5C 15.498,209.482 15.6646,212.482 15.5,215.5C 18.1667,215.5 20.8333,215.5 23.5,215.5C 23.5,218.167 23.5,220.833 23.5,223.5C 26.1667,223.5 28.8333,223.5 31.5,223.5C 31.5,226.167 31.5,228.833 31.5,231.5C 34.1667,231.5 36.8333,231.5 39.5,231.5C 39.5,234.167 39.5,236.833 39.5,239.5C 42.1667,239.5 44.8333,239.5 47.5,239.5C 47.5,242.167 47.5,244.833 47.5,247.5C 50.1667,247.5 52.8333,247.5 55.5,247.5C 55.5,250.167 55.5,252.833 55.5,255.5C 58.1667,255.5 60.8333,255.5 63.5,255.5C 63.5,258.167 63.5,260.833 63.5,263.5C 66.1667,263.5 68.8333,263.5 71.5,263.5C 71.5,266.167 71.5,268.833 71.5,271.5C 74.1667,271.5 76.8333,271.5 79.5,271.5C 79.5,274.167 79.5,276.833 79.5,279.5C 82.1667,279.5 84.8333,279.5 87.5,279.5C 87.5,282.167 87.5,284.833 87.5,287.5C 90.1667,287.5 92.8333,287.5 95.5,287.5C 95.5,290.167 95.5,292.833 95.5,295.5C 98.1667,295.5 100.833,295.5 103.5,295.5C 103.5,298.167 103.5,300.833 103.5,303.5C 106.167,303.5 108.833,303.5 111.5,303.5C 111.5,306.167 111.5,308.833 111.5,311.5C 114.167,311.5 116.833,311.5 119.5,311.5C 119.5,314.167 119.5,316.833 119.5,319.5C 122.167,319.5 124.833,319.5 127.5,319.5C 127.5,322.167 127.5,324.833 127.5,327.5C 130.167,327.5 132.833,327.5 135.5,327.5C 135.5,330.167 135.5,332.833 135.5,335.5C 138.167,335.5 140.833,335.5 143.5,335.5C 143.5,338.167 143.5,340.833 143.5,343.5C 146.167,343.5 148.833,343.5 151.5,343.5C 151.5,346.167 151.5,348.833 151.5,351.5C 154.167,351.5 156.833,351.5 159.5,351.5C 159.5,354.167 159.5,356.833 159.5,359.5C 162.167,359.5 164.833,359.5 167.5,359.5C 167.5,362.167 167.5,364.833 167.5,367.5C 170.167,367.5 172.833,367.5 175.5,367.5C 175.5,370.167 175.5,372.833 175.5,375.5C 178.167,375.5 180.833,375.5 183.5,375.5C 183.5,378.167 183.5,380.833 183.5,383.5C 186.167,383.5 188.833,383.5 191.5,383.5C 191.335,386.518 191.502,389.518 192,392.5C 192.414,392.043 192.914,391.709 193.5,391.5C 194.288,392.77 195.288,393.77 196.5,394.5C 195.5,396.167 194.167,397.5 192.5,398.5C 178.817,398.833 165.15,398.499 151.5,397.5C 164.821,396.667 178.154,396.167 191.5,396C 152.167,395.667 112.833,395.333 73.5,395C 94.3009,393.906 114.968,393.072 135.5,392.5C 133.052,391.527 130.385,391.194 127.5,391.5C 127.5,388.833 127.5,386.167 127.5,383.5C 124.833,383.5 122.167,383.5 119.5,383.5C 119.5,380.833 119.5,378.167 119.5,375.5C 116.833,375.5 114.167,375.5 111.5,375.5C 111.5,372.833 111.5,370.167 111.5,367.5C 108.833,367.5 106.167,367.5 103.5,367.5C 103.5,364.833 103.5,362.167 103.5,359.5C 100.833,359.5 98.1667,359.5 95.5,359.5C 95.5,356.833 95.5,354.167 95.5,351.5C 92.8333,351.5 90.1667,351.5 87.5,351.5C 87.5,348.833 87.5,346.167 87.5,343.5C 84.8333,343.5 82.1667,343.5 79.5,343.5C 79.5,340.833 79.5,338.167 79.5,335.5C 76.8333,335.5 74.1667,335.5 71.5,335.5C 71.5,332.833 71.5,330.167 71.5,327.5C 68.8333,327.5 66.1667,327.5 63.5,327.5C 63.5,324.833 63.5,322.167 63.5,319.5C 60.8333,319.5 58.1667,319.5 55.5,319.5C 55.5,316.833 55.5,314.167 55.5,311.5C 52.8333,311.5 50.1667,311.5 47.5,311.5C 47.5,308.833 47.5,306.167 47.5,303.5C 44.8333,303.5 42.1667,303.5 39.5,303.5C 39.5,300.833 39.5,298.167 39.5,295.5C 36.8333,295.5 34.1667,295.5 31.5,295.5C 31.5,292.833 31.5,290.167 31.5,287.5C 28.8333,287.5 26.1667,287.5 23.5,287.5C 23.5,284.833 23.5,282.167 23.5,279.5C 20.8333,279.5 18.1667,279.5 15.5,279.5C 15.5,276.833 15.5,274.167 15.5,271.5C 12.8333,271.5 10.1667,271.5 7.5,271.5C 7.5,268.833 7.5,266.167 7.5,263.5C 4.83333,263.5 2.16667,263.5 -0.5,263.5C -0.5,246.833 -0.5,230.167 -0.5,213.5C 4.46112,209.874 9.12778,205.874 13.5,201.5 Z"/></g>
<g><path style="opacity:1" fill="#0b7ac2" d="M 162.5,231.5 C 162.884,233.929 163.551,236.263 164.5,238.5C 162.143,238.337 159.81,238.503 157.5,239C 160.146,239.497 162.813,239.664 165.5,239.5C 165.351,238.448 165.517,237.448 166,236.5C 167.163,238.285 167.83,240.285 168,242.5C 170.167,243.333 171.667,244.833 172.5,247C 173.448,247.483 174.448,247.649 175.5,247.5C 175.351,248.552 175.517,249.552 176,250.5C 178.167,251.333 179.667,252.833 180.5,255C 181.448,255.483 182.448,255.649 183.5,255.5C 183.351,256.552 183.517,257.552 184,258.5C 186.167,259.333 187.667,260.833 188.5,263C 189.448,263.483 190.448,263.649 191.5,263.5C 191.351,264.552 191.517,265.552 192,266.5C 194.167,267.333 195.667,268.833 196.5,271C 197.448,271.483 198.448,271.649 199.5,271.5C 199.351,272.552 199.517,273.552 200,274.5C 202.167,275.333 203.667,276.833 204.5,279C 205.448,279.483 206.448,279.649 207.5,279.5C 207.351,280.552 207.517,281.552 208,282.5C 210.167,283.333 211.667,284.833 212.5,287C 213.448,287.483 214.448,287.649 215.5,287.5C 215.351,288.552 215.517,289.552 216,290.5C 218.167,291.333 219.667,292.833 220.5,295C 221.448,295.483 222.448,295.649 223.5,295.5C 223.351,296.552 223.517,297.552 224,298.5C 226.167,299.333 227.667,300.833 228.5,303C 229.448,303.483 230.448,303.649 231.5,303.5C 231.351,304.552 231.517,305.552 232,306.5C 234.167,307.333 235.667,308.833 236.5,311C 237.448,311.483 238.448,311.649 239.5,311.5C 239.351,312.552 239.517,313.552 240,314.5C 242.167,315.333 243.667,316.833 244.5,319C 245.448,319.483 246.448,319.649 247.5,319.5C 247.351,320.552 247.517,321.552 248,322.5C 250.412,325.293 253.245,327.627 256.5,329.5C 256.833,328.833 257.167,328.167 257.5,327.5C 258.192,328.025 258.692,328.692 259,329.5C 260.041,327.689 261.207,327.355 262.5,328.5C 252.167,339.5 241.5,350.167 230.5,360.5C 229.047,360.071 227.381,359.904 225.5,360C 223.833,359 222.167,358 220.5,357C 182.333,317.5 143.5,278.667 104,240.5C 103.253,237.049 103.92,236.716 106,239.5C 107.622,237.453 109.788,236.453 112.5,236.5C 115.436,237.649 118.436,238.149 121.5,238C 123.316,236.685 124.983,235.185 126.5,233.5C 125.975,232.808 125.308,232.308 124.5,232C 126.016,230.103 126.683,227.936 126.5,225.5C 131.047,214.736 135.881,204.069 141,193.5C 142.312,191.342 143.978,191.009 146,192.5C 146.333,205.5 146.667,218.5 147,231.5C 147.374,232.416 147.874,233.25 148.5,234C 153.88,236.582 158.547,235.749 162.5,231.5 Z"/></g>
<g><path style="opacity:1" fill="#116ab2" d="M 307.5,215.5 C 307.5,217.5 307.5,219.5 307.5,221.5C 309.355,221.272 310.188,221.939 310,223.5C 308.989,222.663 307.822,222.33 306.5,222.5C 305.438,229.038 307.772,233.705 313.5,236.5C 317.5,241.167 321.5,245.833 325.5,250.5C 328.32,251.236 330.32,252.902 331.5,255.5C 330.011,255.533 328.678,256.033 327.5,257C 328.641,257.741 328.641,258.575 327.5,259.5C 328.394,259.517 329.394,259.851 330.5,260.5C 322.167,269.5 313.5,278.167 304.5,286.5C 305.768,284.603 305.768,282.269 304.5,279.5C 303.448,279.649 302.448,279.483 301.5,279C 289.667,265.833 277.167,253.333 264,241.5C 264.242,239.862 265.075,238.362 266.5,237C 265.027,236.29 264.36,235.124 264.5,233.5C 267.906,223.446 271.406,213.446 275,203.5C 278.198,212.761 281.198,222.094 284,231.5C 288.187,238.199 293.521,239.199 300,234.5C 302.361,228.004 304.861,221.671 307.5,215.5 Z"/></g>
<g><path style="opacity:1" fill="#1070b8" d="M 230.5,191.5 C 231.115,196.094 231.949,200.761 233,205.5C 234.241,207.421 235.741,207.754 237.5,206.5C 237.92,204.674 237.92,202.674 237.5,200.5C 241.398,211.019 245.232,221.686 249,232.5C 253.884,237.432 259.051,237.765 264.5,233.5C 264.36,235.124 265.027,236.29 266.5,237C 265.075,238.362 264.242,239.862 264,241.5C 277.167,253.333 289.667,265.833 301.5,279C 302.448,279.483 303.448,279.649 304.5,279.5C 305.768,282.269 305.768,284.603 304.5,286.5C 296.833,294.833 288.833,302.833 280.5,310.5C 279.59,305.599 276.59,303.266 271.5,303.5C 271.833,297.833 269.167,295.167 263.5,295.5C 263.833,289.833 261.167,287.167 255.5,287.5C 255.833,281.833 253.167,279.167 247.5,279.5C 247.833,273.833 245.167,271.167 239.5,271.5C 239.833,265.833 237.167,263.167 231.5,263.5C 231.833,257.833 229.167,255.167 223.5,255.5C 223.833,249.833 221.167,247.167 215.5,247.5C 215.66,245.801 215.494,244.134 215,242.5C 212.69,240.863 211.19,238.696 210.5,236C 207.977,235.482 205.977,234.148 204.5,232C 202.236,231.764 200.069,231.264 198,230.5C 197.5,219.505 197.333,208.505 197.5,197.5C 198.215,195.245 199.548,193.412 201.5,192C 205.244,191.071 208.744,191.571 212,193.5C 213.021,206.141 214.021,218.808 215,231.5C 215.5,233.333 216.667,234.5 218.5,235C 221.167,235.667 223.833,235.667 226.5,235C 228.333,234.5 229.5,233.333 230,231.5C 230.5,218.171 230.667,204.837 230.5,191.5 Z"/></g>
<g><path style="opacity:1" fill="#0387d1" d="M -0.5,263.5 C 2.16667,263.5 4.83333,263.5 7.5,263.5C 7.5,266.167 7.5,268.833 7.5,271.5C 10.1667,271.5 12.8333,271.5 15.5,271.5C 15.5,274.167 15.5,276.833 15.5,279.5C 18.1667,279.5 20.8333,279.5 23.5,279.5C 23.5,282.167 23.5,284.833 23.5,287.5C 26.1667,287.5 28.8333,287.5 31.5,287.5C 31.5,290.167 31.5,292.833 31.5,295.5C 34.1667,295.5 36.8333,295.5 39.5,295.5C 39.5,298.167 39.5,300.833 39.5,303.5C 42.1667,303.5 44.8333,303.5 47.5,303.5C 47.5,306.167 47.5,308.833 47.5,311.5C 50.1667,311.5 52.8333,311.5 55.5,311.5C 55.5,314.167 55.5,316.833 55.5,319.5C 58.1667,319.5 60.8333,319.5 63.5,319.5C 63.5,322.167 63.5,324.833 63.5,327.5C 66.1667,327.5 68.8333,327.5 71.5,327.5C 71.5,330.167 71.5,332.833 71.5,335.5C 74.1667,335.5 76.8333,335.5 79.5,335.5C 79.5,338.167 79.5,340.833 79.5,343.5C 82.1667,343.5 84.8333,343.5 87.5,343.5C 87.5,346.167 87.5,348.833 87.5,351.5C 90.1667,351.5 92.8333,351.5 95.5,351.5C 95.5,354.167 95.5,356.833 95.5,359.5C 98.1667,359.5 100.833,359.5 103.5,359.5C 103.5,362.167 103.5,364.833 103.5,367.5C 106.167,367.5 108.833,367.5 111.5,367.5C 111.5,370.167 111.5,372.833 111.5,375.5C 114.167,375.5 116.833,375.5 119.5,375.5C 119.5,378.167 119.5,380.833 119.5,383.5C 122.167,383.5 124.833,383.5 127.5,383.5C 127.5,386.167 127.5,388.833 127.5,391.5C 130.385,391.194 133.052,391.527 135.5,392.5C 121.471,391.998 107.471,391.998 93.5,392.5C 90.9783,391.911 88.4783,391.245 86,390.5C 81.2188,391.419 76.3855,391.752 71.5,391.5C 71.6923,388.191 70.3589,385.691 67.5,384C 66.2068,383.51 64.8734,383.343 63.5,383.5C 63.6923,380.191 62.3589,377.691 59.5,376C 58.2068,375.51 56.8734,375.343 55.5,375.5C 55.6923,372.191 54.3589,369.691 51.5,368C 50.2068,367.51 48.8734,367.343 47.5,367.5C 47.6923,364.191 46.3589,361.691 43.5,360C 42.2068,359.51 40.8734,359.343 39.5,359.5C 39.6923,356.191 38.3589,353.691 35.5,352C 34.2068,351.51 32.8734,351.343 31.5,351.5C 31.6923,348.191 30.3589,345.691 27.5,344C 26.2068,343.51 24.8734,343.343 23.5,343.5C 23.6923,340.191 22.3589,337.691 19.5,336C 18.2068,335.51 16.8734,335.343 15.5,335.5C 15.6923,332.191 14.3589,329.691 11.5,328C 10.2068,327.51 8.87344,327.343 7.5,327.5C 7.69228,324.191 6.35895,321.691 3.5,320C 2.20677,319.51 0.873441,319.343 -0.5,319.5C -0.5,300.833 -0.5,282.167 -0.5,263.5 Z"/></g>
<g><path style="opacity:1" fill="#0a8bd3" d="M -0.5,319.5 C 0.873441,319.343 2.20677,319.51 3.5,320C 6.35895,321.691 7.69228,324.191 7.5,327.5C 8.87344,327.343 10.2068,327.51 11.5,328C 14.3589,329.691 15.6923,332.191 15.5,335.5C 16.8734,335.343 18.2068,335.51 19.5,336C 22.3589,337.691 23.6923,340.191 23.5,343.5C 24.8734,343.343 26.2068,343.51 27.5,344C 30.3589,345.691 31.6923,348.191 31.5,351.5C 32.8734,351.343 34.2068,351.51 35.5,352C 38.3589,353.691 39.6923,356.191 39.5,359.5C 40.8734,359.343 42.2068,359.51 43.5,360C 46.3589,361.691 47.6923,364.191 47.5,367.5C 48.8734,367.343 50.2068,367.51 51.5,368C 54.3589,369.691 55.6923,372.191 55.5,375.5C 56.8734,375.343 58.2068,375.51 59.5,376C 62.3589,377.691 63.6923,380.191 63.5,383.5C 64.8734,383.343 66.2068,383.51 67.5,384C 70.3589,385.691 71.6923,388.191 71.5,391.5C 76.3855,391.752 81.2188,391.419 86,390.5C 88.4783,391.245 90.9783,391.911 93.5,392.5C 107.471,391.998 121.471,391.998 135.5,392.5C 114.968,393.072 94.3009,393.906 73.5,395C 112.833,395.333 152.167,395.667 191.5,396C 178.154,396.167 164.821,396.667 151.5,397.5C 165.15,398.499 178.817,398.833 192.5,398.5C 192.5,398.833 192.5,399.167 192.5,399.5C 128.167,399.5 63.8333,399.5 -0.5,399.5C -0.5,372.833 -0.5,346.167 -0.5,319.5 Z"/></g>
</svg>
